<mxfile host="app.diagrams.net" modified="2022-08-29T09:01:23.312Z" agent="5.0 (Macintosh; Intel Mac OS X 10_13_6) AppleWebKit/537.36 (KHTML, like Gecko) Chrome/104.0.0.0 Safari/537.36" etag="vOPnqM6VwGQ9zVZgw9Ze" version="20.2.7" type="github">
  <diagram id="MdAAGBD7QcAxt9RL29h1" name="第 1 页">
    <mxGraphModel dx="1106" dy="586" grid="1" gridSize="10" guides="1" tooltips="1" connect="1" arrows="1" fold="1" page="1" pageScale="1" pageWidth="827" pageHeight="1169" math="0" shadow="0">
      <root>
        <mxCell id="0" />
        <mxCell id="1" parent="0" />
        <mxCell id="3cGg4AQVJhE7Mp6qMCA1-27" value="" style="rounded=0;whiteSpace=wrap;html=1;" vertex="1" parent="1">
          <mxGeometry x="40" width="960" height="370" as="geometry" />
        </mxCell>
        <mxCell id="3cGg4AQVJhE7Mp6qMCA1-3" style="edgeStyle=orthogonalEdgeStyle;rounded=0;orthogonalLoop=1;jettySize=auto;html=1;exitX=1;exitY=0.5;exitDx=0;exitDy=0;entryX=0;entryY=0.5;entryDx=0;entryDy=0;" edge="1" parent="1" source="3cGg4AQVJhE7Mp6qMCA1-1" target="3cGg4AQVJhE7Mp6qMCA1-2">
          <mxGeometry relative="1" as="geometry" />
        </mxCell>
        <mxCell id="3cGg4AQVJhE7Mp6qMCA1-1" value="日常巡检" style="rounded=0;whiteSpace=wrap;html=1;" vertex="1" parent="1">
          <mxGeometry x="80" y="200" width="120" height="40" as="geometry" />
        </mxCell>
        <mxCell id="3cGg4AQVJhE7Mp6qMCA1-5" style="edgeStyle=orthogonalEdgeStyle;rounded=0;orthogonalLoop=1;jettySize=auto;html=1;exitX=0.5;exitY=0;exitDx=0;exitDy=0;entryX=0;entryY=0.5;entryDx=0;entryDy=0;" edge="1" parent="1" source="3cGg4AQVJhE7Mp6qMCA1-2" target="3cGg4AQVJhE7Mp6qMCA1-4">
          <mxGeometry relative="1" as="geometry" />
        </mxCell>
        <mxCell id="3cGg4AQVJhE7Mp6qMCA1-7" value="Yes" style="edgeLabel;html=1;align=center;verticalAlign=middle;resizable=0;points=[];" vertex="1" connectable="0" parent="3cGg4AQVJhE7Mp6qMCA1-5">
          <mxGeometry x="0.513" y="1" relative="1" as="geometry">
            <mxPoint as="offset" />
          </mxGeometry>
        </mxCell>
        <mxCell id="3cGg4AQVJhE7Mp6qMCA1-21" style="edgeStyle=orthogonalEdgeStyle;rounded=0;orthogonalLoop=1;jettySize=auto;html=1;exitX=0.5;exitY=1;exitDx=0;exitDy=0;entryX=0;entryY=0.5;entryDx=0;entryDy=0;" edge="1" parent="1" source="3cGg4AQVJhE7Mp6qMCA1-2" target="3cGg4AQVJhE7Mp6qMCA1-20">
          <mxGeometry relative="1" as="geometry" />
        </mxCell>
        <mxCell id="3cGg4AQVJhE7Mp6qMCA1-28" value="No" style="edgeLabel;html=1;align=center;verticalAlign=middle;resizable=0;points=[];" vertex="1" connectable="0" parent="3cGg4AQVJhE7Mp6qMCA1-21">
          <mxGeometry x="0.3537" y="1" relative="1" as="geometry">
            <mxPoint as="offset" />
          </mxGeometry>
        </mxCell>
        <mxCell id="3cGg4AQVJhE7Mp6qMCA1-2" value="是否存在问题" style="rhombus;whiteSpace=wrap;html=1;" vertex="1" parent="1">
          <mxGeometry x="240" y="190" width="110" height="60" as="geometry" />
        </mxCell>
        <mxCell id="3cGg4AQVJhE7Mp6qMCA1-9" style="edgeStyle=orthogonalEdgeStyle;rounded=0;orthogonalLoop=1;jettySize=auto;html=1;exitX=1;exitY=0.5;exitDx=0;exitDy=0;entryX=0;entryY=0.5;entryDx=0;entryDy=0;" edge="1" parent="1" source="3cGg4AQVJhE7Mp6qMCA1-4" target="3cGg4AQVJhE7Mp6qMCA1-8">
          <mxGeometry relative="1" as="geometry" />
        </mxCell>
        <mxCell id="3cGg4AQVJhE7Mp6qMCA1-4" value="定位问题" style="rounded=0;whiteSpace=wrap;html=1;" vertex="1" parent="1">
          <mxGeometry x="370" y="120" width="120" height="40" as="geometry" />
        </mxCell>
        <mxCell id="3cGg4AQVJhE7Mp6qMCA1-12" style="edgeStyle=orthogonalEdgeStyle;rounded=0;orthogonalLoop=1;jettySize=auto;html=1;exitX=0.5;exitY=0;exitDx=0;exitDy=0;entryX=0;entryY=0.5;entryDx=0;entryDy=0;" edge="1" parent="1" source="3cGg4AQVJhE7Mp6qMCA1-8" target="3cGg4AQVJhE7Mp6qMCA1-11">
          <mxGeometry relative="1" as="geometry" />
        </mxCell>
        <mxCell id="3cGg4AQVJhE7Mp6qMCA1-14" value="No" style="edgeLabel;html=1;align=center;verticalAlign=middle;resizable=0;points=[];" vertex="1" connectable="0" parent="3cGg4AQVJhE7Mp6qMCA1-12">
          <mxGeometry x="0.3778" y="2" relative="1" as="geometry">
            <mxPoint as="offset" />
          </mxGeometry>
        </mxCell>
        <mxCell id="3cGg4AQVJhE7Mp6qMCA1-13" value="Yes" style="edgeStyle=orthogonalEdgeStyle;rounded=0;orthogonalLoop=1;jettySize=auto;html=1;exitX=0.5;exitY=1;exitDx=0;exitDy=0;entryX=0;entryY=0.5;entryDx=0;entryDy=0;" edge="1" parent="1" source="3cGg4AQVJhE7Mp6qMCA1-8" target="3cGg4AQVJhE7Mp6qMCA1-10">
          <mxGeometry relative="1" as="geometry" />
        </mxCell>
        <mxCell id="3cGg4AQVJhE7Mp6qMCA1-8" value="可现场排查" style="rhombus;whiteSpace=wrap;html=1;" vertex="1" parent="1">
          <mxGeometry x="530" y="110" width="110" height="60" as="geometry" />
        </mxCell>
        <mxCell id="3cGg4AQVJhE7Mp6qMCA1-18" style="edgeStyle=orthogonalEdgeStyle;rounded=0;orthogonalLoop=1;jettySize=auto;html=1;exitX=1;exitY=0.5;exitDx=0;exitDy=0;entryX=0;entryY=0.5;entryDx=0;entryDy=0;" edge="1" parent="1" source="3cGg4AQVJhE7Mp6qMCA1-10" target="3cGg4AQVJhE7Mp6qMCA1-17">
          <mxGeometry relative="1" as="geometry" />
        </mxCell>
        <mxCell id="3cGg4AQVJhE7Mp6qMCA1-10" value="问题解决" style="rounded=0;whiteSpace=wrap;html=1;" vertex="1" parent="1">
          <mxGeometry x="660" y="180" width="120" height="40" as="geometry" />
        </mxCell>
        <mxCell id="3cGg4AQVJhE7Mp6qMCA1-15" style="edgeStyle=orthogonalEdgeStyle;rounded=0;orthogonalLoop=1;jettySize=auto;html=1;exitX=0.5;exitY=1;exitDx=0;exitDy=0;entryX=0.5;entryY=0;entryDx=0;entryDy=0;" edge="1" parent="1" source="3cGg4AQVJhE7Mp6qMCA1-11" target="3cGg4AQVJhE7Mp6qMCA1-10">
          <mxGeometry relative="1" as="geometry" />
        </mxCell>
        <mxCell id="3cGg4AQVJhE7Mp6qMCA1-11" value="技术专家支持" style="rounded=0;whiteSpace=wrap;html=1;" vertex="1" parent="1">
          <mxGeometry x="660" y="30" width="120" height="40" as="geometry" />
        </mxCell>
        <mxCell id="3cGg4AQVJhE7Mp6qMCA1-24" style="edgeStyle=orthogonalEdgeStyle;rounded=0;orthogonalLoop=1;jettySize=auto;html=1;exitX=1;exitY=0.5;exitDx=0;exitDy=0;entryX=1;entryY=0.5;entryDx=0;entryDy=0;" edge="1" parent="1" source="3cGg4AQVJhE7Mp6qMCA1-17" target="3cGg4AQVJhE7Mp6qMCA1-22">
          <mxGeometry relative="1" as="geometry" />
        </mxCell>
        <mxCell id="3cGg4AQVJhE7Mp6qMCA1-25" value="归档" style="edgeLabel;html=1;align=center;verticalAlign=middle;resizable=0;points=[];" vertex="1" connectable="0" parent="3cGg4AQVJhE7Mp6qMCA1-24">
          <mxGeometry x="0.2597" y="2" relative="1" as="geometry">
            <mxPoint as="offset" />
          </mxGeometry>
        </mxCell>
        <mxCell id="3cGg4AQVJhE7Mp6qMCA1-17" value="问题报告" style="shape=document;whiteSpace=wrap;html=1;boundedLbl=1;" vertex="1" parent="1">
          <mxGeometry x="827" y="175" width="110" height="50" as="geometry" />
        </mxCell>
        <mxCell id="3cGg4AQVJhE7Mp6qMCA1-23" style="edgeStyle=orthogonalEdgeStyle;rounded=0;orthogonalLoop=1;jettySize=auto;html=1;exitX=1;exitY=0.5;exitDx=0;exitDy=0;" edge="1" parent="1" source="3cGg4AQVJhE7Mp6qMCA1-20" target="3cGg4AQVJhE7Mp6qMCA1-22">
          <mxGeometry relative="1" as="geometry" />
        </mxCell>
        <mxCell id="3cGg4AQVJhE7Mp6qMCA1-26" value="归档" style="edgeLabel;html=1;align=center;verticalAlign=middle;resizable=0;points=[];" vertex="1" connectable="0" parent="3cGg4AQVJhE7Mp6qMCA1-23">
          <mxGeometry x="-0.124" y="-1" relative="1" as="geometry">
            <mxPoint as="offset" />
          </mxGeometry>
        </mxCell>
        <mxCell id="3cGg4AQVJhE7Mp6qMCA1-20" value="巡检报告" style="shape=document;whiteSpace=wrap;html=1;boundedLbl=1;" vertex="1" parent="1">
          <mxGeometry x="359" y="270" width="110" height="50" as="geometry" />
        </mxCell>
        <mxCell id="3cGg4AQVJhE7Mp6qMCA1-22" value="运维文件" style="rounded=0;whiteSpace=wrap;html=1;" vertex="1" parent="1">
          <mxGeometry x="590" y="275" width="120" height="40" as="geometry" />
        </mxCell>
      </root>
    </mxGraphModel>
  </diagram>
</mxfile>
